<?xml version="1.0" encoding="UTF-8" standalone="no"?>
<!-- Created with Inkscape (http://www.inkscape.org/) -->

<svg
   width="562.08917mm"
   height="194.65796mm"
   viewBox="0 0 562.08917 194.65796"
   version="1.1"
   id="svg1"
   inkscape:version="1.3 (0e150ed6c4, 2023-07-21)"
   sodipodi:docname="new logo design and others.svg"
   xmlns:inkscape="http://www.inkscape.org/namespaces/inkscape"
   xmlns:sodipodi="http://sodipodi.sourceforge.net/DTD/sodipodi-0.dtd"
   xmlns="http://www.w3.org/2000/svg"
   xmlns:svg="http://www.w3.org/2000/svg">
  <sodipodi:namedview
     id="namedview1"
     pagecolor="#ffffff"
     bordercolor="#000000"
     borderopacity="0.25"
     inkscape:showpageshadow="2"
     inkscape:pageopacity="0.0"
     inkscape:pagecheckerboard="0"
     inkscape:deskcolor="#d1d1d1"
     inkscape:document-units="mm"
     inkscape:zoom="0.16031672"
     inkscape:cx="-798.41953"
     inkscape:cy="1674.8097"
     inkscape:window-width="1366"
     inkscape:window-height="705"
     inkscape:window-x="-8"
     inkscape:window-y="-8"
     inkscape:window-maximized="1"
     inkscape:current-layer="layer1" />
  <defs
     id="defs1" />
  <g
     inkscape:label="Layer 1"
     inkscape:groupmode="layer"
     id="layer1"
     transform="translate(680.50832,-519.90624)">
    <g
       id="g2"
       inkscape:export-filename="..\version-1.0\src\public\assets\logo-white.svg"
       inkscape:export-xdpi="96"
       inkscape:export-ydpi="96">
      <path
         id="rect1-9"
         style="fill:#aa0000;stroke-width:1.08914"
         d="m -666.36656,519.90625 c -7.8347,0 -14.14177,6.30708 -14.14177,14.14178 v 115.71593 c 0,7.8347 6.30707,14.14229 14.14177,14.14229 h 115.71594 c 7.8347,0 14.14229,-6.30759 14.14229,-14.14229 V 534.04803 c 0,-7.8347 -6.30759,-14.14178 -14.14229,-14.14178 h -12.01012 v 87.86441 c 0,8.12109 -0.8332,14.43751 -2.49907,18.94923 -1.59645,4.51171 -4.9627,8.85005 -10.09913,13.01471 -5.067,4.16467 -12.25108,7.53092 -21.55217,10.09912 -9.30108,2.63763 -19.43533,3.95635 -30.40228,3.95635 -16.86689,0 -29.15256,-3.43568 -36.85719,-10.30738 -7.70462,-6.87169 -11.55691,-14.88899 -11.55691,-24.05125 0,-6.38582 2.15141,-11.62626 6.4549,-15.72152 4.30349,-4.16466 9.75276,-6.24716 16.34681,-6.24716 5.62229,0 10.23784,1.90917 13.84721,5.72678 3.67879,3.7482 5.51801,8.53758 5.51801,14.36812 0,6.03876 -2.08198,11.10589 -6.24664,15.20114 -4.09526,4.09525 -9.26627,6.14277 -15.51327,6.14277 -2.08233,0 -4.33867,-0.27773 -6.76806,-0.83302 l -0.416,0.41651 c 5.41407,5.34466 11.79992,8.01708 19.15749,8.01708 13.95162,0 20.9274,-9.02382 20.9274,-27.0707 l -0.83302,-85.89604 v -13.62915 z" />
      <path
         style="font-weight:bold;font-size:210.708px;font-family:'Bodoni MT';-inkscape-font-specification:'Bodoni MT Bold';fill:#ffffff;stroke-width:36.9035"
         d="m -438.28787,614.25156 h -50.6193 v 13.37502 q 0,15.74137 2.77788,21.81157 2.88078,5.96732 13.06637,5.96732 8.95097,0 16.66733,-5.76155 7.81924,-5.76155 11.93463,-17.90195 h 6.17309 q -3.80674,15.63848 -14.09521,23.45773 -10.28848,7.81924 -24.69235,7.81924 -19.65099,0 -31.48273,-13.47791 -11.72887,-13.4779 -11.72887,-31.07119 0,-16.8731 11.93464,-30.04235 11.93463,-13.27214 29.83658,-13.27214 15.43271,0 26.85292,9.67117 11.42021,9.67117 13.37502,29.42504 z m -50.6193,-6.68751 h 22.12022 v -8.64232 q 0,-11.21444 -3.08654,-14.50675 -2.98366,-3.3952 -8.23078,-3.3952 -4.93847,0 -7.92213,2.98366 -2.88077,2.98366 -2.88077,15.12406 z m 99.48956,-32.4087 v 13.06637 h 0.41154 q 6.89328,-13.06637 20.57695,-13.06637 13.06637,0 23.45773,12.96348 10.49425,12.8606 10.49425,31.27697 0,18.51926 -9.56829,31.0712 -9.56828,12.55194 -23.45772,12.55194 -12.8606,0 -21.91446,-11.42021 v 56.6895 h 13.06637 v 6.27598 h -52.47123 v -6.27598 h 11.31732 V 584.00344 h -11.31732 v -6.37885 h 4.42404 q 1.85193,0 6.89328,-0.10289 5.04136,-0.20577 11.5231,-0.92596 l 13.58078,-1.44039 z m 0,32.20293 v 22.53176 q 0,12.96348 4.93847,19.95965 4.93847,6.99616 10.8029,6.99616 3.29231,0 5.35001,-3.39519 2.05769,-3.49809 2.05769,-19.75388 v -25.92696 q 0,-16.46156 -1.95481,-21.19426 -1.95481,-4.7327 -5.65866,-4.7327 -7.4077,0 -11.52309,7.20194 -4.01251,7.20193 -4.01251,18.31348 z m 104.11938,-86.83474 v 74.38569 h 0.41154 q 9.56829,-19.75388 29.7337,-19.75388 8.84809,0 17.79906,5.55578 8.95098,5.55578 8.95098,21.6058 v 51.85392 h 11.72886 v 6.27597 h -51.54527 v -6.27597 h 11.72887 v -57.82124 q 0,-11.93463 -7.92213,-11.93463 -9.4654,0 -15.22694,9.56828 -5.65867,9.4654 -5.65867,12.34617 v 47.84142 h 12.03752 v 6.27597 h -52.05969 v -6.27597 h 11.93463 V 528.75432 h -12.75771 v -6.27597 h 11.31733 q 8.95097,0 19.23945,-1.02884 l 7.09905,-0.92597 z m 70.37318,57.10105 h 51.33949 v 6.37885 h -12.34617 l 21.50292,44.03468 13.68367,-32.10005 q 2.46923,-6.27597 2.46923,-8.23078 0,-3.70385 -8.43655,-3.70385 h -3.80673 v -6.37885 h 32.10004 v 6.37885 q -6.68751,0 -8.95097,1.64616 -2.26347,1.54327 -4.93847,7.81924 l -44.03468,101.75303 q 0,2.675 -5.86443,10.90578 -5.76155,8.23078 -17.18176,8.23078 -6.48174,0 -10.8029,-3.90962 -4.32116,-3.80673 -4.32116,-8.95097 0,-5.04135 3.49809,-8.84809 3.49808,-3.80674 8.33366,-3.80674 6.99617,0 11.5231,8.02502 1.3375,2.36634 2.77788,2.36634 3.49809,0 7.81925,-10.39136 l 11.72886,-28.39619 -37.86159,-76.44338 h -8.23078 z"
         id="text1-1"
         aria-label="ephy" />
    </g>
  </g>
</svg>
