<?xml version="1.0" encoding="UTF-8" standalone="no"?>
<!-- Created with Inkscape (http://www.inkscape.org/) -->

<svg
   width="144.00002mm"
   height="143.99998mm"
   viewBox="0 0 144.00001 143.99999"
   version="1.1"
   id="svg1"
   inkscape:version="1.3 (0e150ed6c4, 2023-07-21)"
   sodipodi:docname="icon.svg"
   xmlns:inkscape="http://www.inkscape.org/namespaces/inkscape"
   xmlns:sodipodi="http://sodipodi.sourceforge.net/DTD/sodipodi-0.dtd"
   xmlns="http://www.w3.org/2000/svg"
   xmlns:svg="http://www.w3.org/2000/svg">
  <sodipodi:namedview
     id="namedview1"
     pagecolor="#ffffff"
     bordercolor="#000000"
     borderopacity="0.25"
     inkscape:showpageshadow="2"
     inkscape:pageopacity="0.0"
     inkscape:pagecheckerboard="0"
     inkscape:deskcolor="#d1d1d1"
     inkscape:document-units="mm"
     inkscape:zoom="0.16031672"
     inkscape:cx="106.04009"
     inkscape:cy="177.7731"
     inkscape:window-width="1366"
     inkscape:window-height="705"
     inkscape:window-x="-8"
     inkscape:window-y="-8"
     inkscape:window-maximized="1"
     inkscape:current-layer="layer1" />
  <defs
     id="defs1" />
  <g
     inkscape:label="Layer 1"
     inkscape:groupmode="layer"
     id="layer1"
     transform="translate(201.33772,59.725192)">
    <path
       id="rect1"
       style="fill:#aa0000;stroke-width:1.08914"
       d="m -187.19595,-59.725192 c -7.8347,0 -14.14177,6.30708 -14.14177,14.14178 v 115.71593 c 0,7.8347 6.30707,14.14229 14.14177,14.14229 h 115.71594 c 7.8347,0 14.14229,-6.30759 14.14229,-14.14229 v -115.71593 c 0,-7.8347 -6.30759,-14.14178 -14.14229,-14.14178 h -12.01012 v 87.86441 c 0,8.12109 -0.8332,14.43751 -2.49907,18.94923 -1.59645,4.51171 -4.9627,8.85005 -10.09913,13.01471 -5.067,4.16467 -12.25108,7.53092 -21.55217,10.09912 -9.30108,2.63763 -19.43533,3.95635 -30.40228,3.95635 -16.86689,0 -29.15256,-3.43568 -36.85719,-10.30738 -7.70462,-6.87169 -11.55691,-14.88899 -11.55691,-24.05125 0,-6.38582 2.15141,-11.62626 6.4549,-15.72152 4.30349,-4.16466 9.75276,-6.24716 16.34681,-6.24716 5.62229,0 10.23784,1.90917 13.84721,5.72678 3.67879,3.7482 5.51801,8.53758 5.51801,14.36812 0,6.03876 -2.08198,11.10589 -6.24664,15.20114 -4.09526,4.09525 -9.26627,6.14277 -15.51327,6.14277 -2.08233,0 -4.33867,-0.27773 -6.76806,-0.83302 l -0.416,0.41651 c 5.41407,5.34466 11.79992,8.01708 19.15749,8.01708 13.95162,0 20.9274,-9.02382 20.9274,-27.0707 l -0.83302,-85.89604 v -13.62915 z"
       inkscape:export-filename="icon.png"
       inkscape:export-xdpi="96"
       inkscape:export-ydpi="96" />
  </g>
</svg>
