<?xml version="1.0" encoding="UTF-8" standalone="no"?>
<!-- Created with Inkscape (http://www.inkscape.org/) -->

<svg
   width="562.08917mm"
   height="194.65796mm"
   viewBox="0 0 562.08917 194.65796"
   version="1.1"
   id="svg1"
   inkscape:version="1.3 (0e150ed6c4, 2023-07-21)"
   sodipodi:docname="new logo design and others.svg"
   xmlns:inkscape="http://www.inkscape.org/namespaces/inkscape"
   xmlns:sodipodi="http://sodipodi.sourceforge.net/DTD/sodipodi-0.dtd"
   xmlns="http://www.w3.org/2000/svg"
   xmlns:svg="http://www.w3.org/2000/svg">
  <sodipodi:namedview
     id="namedview1"
     pagecolor="#ffffff"
     bordercolor="#000000"
     borderopacity="0.25"
     inkscape:showpageshadow="2"
     inkscape:pageopacity="0.0"
     inkscape:pagecheckerboard="0"
     inkscape:deskcolor="#d1d1d1"
     inkscape:document-units="mm"
     inkscape:zoom="0.16031672"
     inkscape:cx="-798.41952"
     inkscape:cy="177.7731"
     inkscape:window-width="1366"
     inkscape:window-height="705"
     inkscape:window-x="-8"
     inkscape:window-y="-8"
     inkscape:window-maximized="1"
     inkscape:current-layer="layer1" />
  <defs
     id="defs1" />
  <g
     inkscape:label="Layer 1"
     inkscape:groupmode="layer"
     id="layer1"
     transform="translate(201.33773,59.725191)">
    <g
       id="g1"
       transform="translate(594.1364,77.567808)">
      <path
         id="rect1"
         style="fill:#aa0000;stroke-width:1.08914"
         d="m -781.33235,-137.293 c -7.8347,0 -14.14177,6.30708 -14.14177,14.14178 V -7.4352903 c 0,7.83470003 6.30707,14.14229 14.14177,14.14229 h 115.71594 c 7.8347,0 14.14229,-6.30758997 14.14229,-14.14229 V -123.15122 c 0,-7.8347 -6.30759,-14.14178 -14.14229,-14.14178 h -12.01012 v 87.86441 c 0,8.12109 -0.8332,14.43751 -2.49907,18.94923 -1.59645,4.51171 -4.9627,8.85005 -10.09913,13.01471 -5.067,4.16467 -12.25108,7.5309197 -21.55217,10.0991197 -9.30108,2.63763 -19.43533,3.95635 -30.40228,3.95635 -16.86689,0 -29.15256,-3.43568 -36.85719,-10.3073797 -7.70462,-6.87169 -11.55691,-14.88899 -11.55691,-24.05125 0,-6.38582 2.15141,-11.62626 6.4549,-15.72152 4.30349,-4.16466 9.75276,-6.24716 16.34681,-6.24716 5.62229,0 10.23784,1.90917 13.84721,5.72678 3.67879,3.7482 5.51801,8.53758 5.51801,14.36812 0,6.03876 -2.08198,11.10589 -6.24664,15.20114 -4.09526,4.09525 -9.26627,6.14277 -15.51327,6.14277 -2.08233,0 -4.33867,-0.27773 -6.76806,-0.83302 l -0.416,0.41651 c 5.41407,5.34466 11.79992,8.01708 19.15749,8.01708 13.95162,0 20.9274,-9.02382 20.9274,-27.0707 l -0.83302,-85.89604 V -137.293 Z" />
      <path
         style="font-weight:bold;font-size:210.708px;font-family:'Bodoni MT';-inkscape-font-specification:'Bodoni MT Bold';fill:#1a1a1a;stroke-width:36.9035"
         d="m -553.25366,-42.947688 h -50.6193 v 13.375019 q 0,15.741368 2.77788,21.8115693 2.88078,5.9673162 13.06637,5.9673162 8.95097,0 16.66733,-5.7615467 7.81924,-5.7615468 11.93463,-17.9019488 h 6.17309 q -3.80674,15.638484 -14.09521,23.4577259 -10.28848,7.8192419 -24.69235,7.8192419 -19.65099,0 -31.48273,-13.4779038 -11.72887,-13.477904 -11.72887,-31.071198 0,-16.873101 11.93464,-30.042351 11.93463,-13.272134 29.83658,-13.272134 15.43271,0 26.85292,9.671168 11.42021,9.671167 13.37502,29.425042 z m -50.6193,-6.68751 h 22.12022 v -8.64232 q 0,-11.214439 -3.08654,-14.506751 -2.98366,-3.395197 -8.23078,-3.395197 -4.93847,0 -7.92213,2.983658 -2.88077,2.983658 -2.88077,15.12406 z m 99.48956,-32.4087 v 13.066365 h 0.41154 q 6.89328,-13.066365 20.57695,-13.066365 13.06637,0 23.45773,12.96348 10.49425,12.860595 10.49425,31.276968 0,18.519257 -9.56829,31.0711979 -9.56828,12.5519409 -23.45772,12.5519409 -12.8606,0 -21.91446,-11.4202085 V 51.088984 h 13.06637 v 6.275971 h -52.47123 v -6.275971 h 11.31732 V -73.195808 h -11.31732 v -6.378856 h 4.42404 q 1.85193,0 6.89328,-0.102884 5.04136,-0.20577 11.5231,-0.925963 l 13.58078,-1.440387 z m 0,32.202931 v 22.531762 q 0,12.96348 4.93847,19.9596443 4.93847,6.99616383 10.8029,6.99616383 3.29231,0 5.35001,-3.39519713 2.05769,-3.4980819 2.05769,-19.753874 v -25.92696 q 0,-16.461562 -1.95481,-21.194261 -1.95481,-4.732699 -5.65866,-4.732699 -7.4077,0 -11.52309,7.201933 -4.01251,7.201933 -4.01251,18.313488 z m 104.11938,-86.834743 v 74.385686 h 0.41154 q 9.56829,-19.753874 29.7337,-19.753874 8.84809,0 17.79906,5.555777 8.95098,5.555777 8.95098,21.6058 v 51.8539203 h 11.72886 v 6.2759705 h -51.54527 v -6.2759705 h 11.72887 V -60.849637 q 0,-11.934632 -7.92213,-11.934632 -9.4654,0 -15.22694,9.568283 -5.65867,9.465398 -5.65867,12.346171 v 47.8414143 h 12.03752 v 6.2759705 h -52.05969 v -6.2759705 h 11.93463 V -128.44493 h -12.75771 v -6.27597 h 11.31733 q 8.95097,0 19.23945,-1.02884 l 7.09905,-0.92597 z m 70.37318,57.101046 h 51.33949 v 6.378856 h -12.34617 l 21.50292,44.034678 13.68367,-32.100046 q 2.46923,-6.27597 2.46923,-8.230781 0,-3.703851 -8.43655,-3.703851 h -3.80673 v -6.378856 h 32.10004 v 6.378856 q -6.68751,0 -8.95097,1.646156 -2.26347,1.543271 -4.93847,7.819242 l -44.03468,101.753029 q 0,2.675004 -5.86443,10.905785 -5.76155,8.230781 -17.18176,8.230781 -6.48174,0 -10.8029,-3.909621 -4.32116,-3.806736 -4.32116,-8.950974 0,-5.041354 3.49809,-8.84809 3.49808,-3.806736 8.33366,-3.806736 6.99617,0 11.5231,8.025012 1.3375,2.366349 2.77788,2.366349 3.49809,0 7.81925,-10.391361 l 11.72886,-28.3961942 -37.86159,-76.4433778 h -8.23078 z"
         id="text1"
         aria-label="ephy" />
    </g>
  </g>
</svg>
